<?xml version="1.0" encoding="UTF-8" standalone="no"?>
<svg
   xmlns:dc="http://purl.org/dc/elements/1.1/"
   xmlns:cc="http://creativecommons.org/ns#"
   xmlns:rdf="http://www.w3.org/1999/02/22-rdf-syntax-ns#"
   xmlns:svg="http://www.w3.org/2000/svg"
   xmlns="http://www.w3.org/2000/svg"
   xmlns:sodipodi="http://sodipodi.sourceforge.net/DTD/sodipodi-0.dtd"
   xmlns:inkscape="http://www.inkscape.org/namespaces/inkscape"
   version="1.1"
   id="svg10"
   xml:space="preserve"
   width="360.15732"
   height="118.6412"
   viewBox="0 0 360.15732 118.6412"
   sodipodi:docname="BKH_Logo.svg"
   inkscape:version="1.0.1 (3bc2e813f5, 2020-09-07)"><metadata
     id="metadata16"><rdf:RDF><cc:Work
         rdf:about=""><dc:format>image/svg+xml</dc:format><dc:type
           rdf:resource="http://purl.org/dc/dcmitype/StillImage" /><dc:title></dc:title></cc:Work></rdf:RDF></metadata><defs
     id="defs14"><clipPath
       clipPathUnits="userSpaceOnUse"
       id="clipPath28"><path
         d="m 325.856,178.723 v -11.588 c 4.953,-0.175 9.866,-0.809 14.73,-1.991 v 0 13.579 z m -36.866,0 v -17.166 c 4.961,1.476 9.901,2.726 14.814,3.673 v 0 13.493 z m -26.074,0 -21.631,-20.621 v 20.621 h -14.814 v -29.777 -8.034 -0.792 c 12.153,5.75 21.502,11.972 31.819,16.799 v 0 l -0.003,0.004 23.316,21.8 z m -97.795,0 v -50.558 c 15.822,-2.033 32.066,1.07 48.476,6.322 v 0 l 4.994,1.66 0.671,0.232 -0.002,-0.008 0.115,0.037 c 0.409,1.408 0.625,2.89 0.625,4.438 v 0 c 0,6.06 -3.284,10.521 -9.595,13.468 v 0 c 4.124,2.525 6.816,6.481 6.816,10.774 v 0 c 0,2.861 -1.178,5.638 -3.282,7.912 v 0 c -3.367,3.619 -8.838,5.723 -16.16,5.723 v 0 z m 14.814,-11.531 h 15.992 c 2.694,0 3.872,-0.673 4.798,-1.599 v 0 c 0.842,-0.842 1.347,-1.937 1.347,-3.283 v 0 c 0,-1.347 -0.505,-2.525 -1.347,-3.366 v 0 c -1.011,-1.011 -2.525,-1.516 -4.798,-1.516 v 0 h -15.992 z m 0,-20.37 h 17.928 c 2.441,0 3.956,-0.505 5.303,-1.851 v 0 c 1.009,-1.01 1.599,-2.441 1.599,-3.956 v 0 c 0,-1.6 -0.59,-3.03 -1.599,-4.04 v 0 c -1.094,-1.094 -2.862,-1.683 -5.303,-1.683 v 0 h -17.928 z m 145.921,13.316 v -1.279 h -13.633 c -7.711,-1.199 -15.465,-3.148 -23.233,-5.557 v 0 -29.542 h 14.814 v 23.146 h 22.052 V 123.76 h 14.73 v 35.539 c -4.055,0.597 -8.134,0.873 -12.232,0.873 v 0 c -0.832,0 -1.664,-0.012 -2.498,-0.034 m -74.593,-17.009 15.441,-19.369 h 18.265 l -20.974,26.068 c -4.351,-2.009 -8.527,-4.302 -12.732,-6.699 m -24.792,-13.223 v -6.146 h 14.814 v 13.655 c -4.646,-2.609 -9.504,-5.182 -14.814,-7.509"
         id="path26" /></clipPath><linearGradient
       x1="0"
       y1="0"
       x2="1"
       y2="0"
       gradientUnits="userSpaceOnUse"
       gradientTransform="matrix(-5.5350304,52.662296,52.662296,5.5350304,255.66951,126.65014)"
       spreadMethod="pad"
       id="linearGradient40"><stop
         style="stop-opacity:1;stop-color:#493157"
         offset="0"
         id="stop34" /><stop         style="stop-opacity:1;stop-color:#6c5478"
         offset="0.55521626"
         id="stop36" /><stop
         style="stop-opacity:1;stop-color:#6c5478"
         offset="1"
         id="stop38" /></linearGradient><clipPath
       clipPathUnits="userSpaceOnUse"
       id="clipPath50"><path
         d="M 0,283.465 H 510.236 V 0 H 0 Z"
         id="path48" /></clipPath><clipPath
       clipPathUnits="userSpaceOnUse"
       id="clipPath62"><path
         d="m 288.99,156.702 v -4.64 c 32.174,9.973 64.129,12.117 93.687,-14.564 v 0 c -8.444,9.078 -18.067,15.315 -26.84,19.521 v 0 c -9.848,4.08 -19.88,5.774 -30.03,5.773 v 0 c -12.148,0 -24.464,-2.427 -36.817,-6.09"
         id="path60" /></clipPath><linearGradient
       x1="0"
       y1="0"
       x2="1"
       y2="0"
       gradientUnits="userSpaceOnUse"
       gradientTransform="matrix(-90.728523,6.3443561,6.3443561,90.728523,383.87085,148.18143)"
       spreadMethod="pad"
       id="linearGradient72"><stop
         style="stop-opacity:1;stop-color:#ffcc00"
         offset="0"
         id="stop68" /><stop
         style="stop-opacity:1;stop-color:#ffed00"
         offset="1"
         id="stop70" /></linearGradient><clipPath
       clipPathUnits="userSpaceOnUse"
       id="clipPath82"><path
         d="m 202.453,122.287 c 7.419,1.928 11.705,5.302 14.173,8.704 v 0 c -25.252,-8.658 -49.573,-11.982 -71.711,2.709 v 0 l -0.039,0.024 c -8.531,5.284 -17.317,15.117 -17.317,15.117 v 0 c 22.466,-29.314 47.969,-32.733 74.894,-26.554"
         id="path80" /></clipPath><linearGradient
       x1="0"
       y1="0"
       x2="1"
       y2="0"
       gradientUnits="userSpaceOnUse"
       gradientTransform="matrix(90.195518,-4.7269468,-4.7269468,-90.195518,126.39321,135.6963)"
       spreadMethod="pad"
       id="linearGradient92"><stop
         style="stop-opacity:1;stop-color:#ffcc00"
         offset="0"
         id="stop88" /><stop
         style="stop-opacity:1;stop-color:#ffed00"
         offset="1"
         id="stop90" /></linearGradient></defs><sodipodi:namedview
     pagecolor="#ffffff"
     bordercolor="#666666"
     borderopacity="1"
     objecttolerance="10"
     gridtolerance="10"
     guidetolerance="10"
     inkscape:pageopacity="0"
     inkscape:pageshadow="2"
     inkscape:window-width="1920"
     inkscape:window-height="1057"
     id="namedview12"
     showgrid="false"
     fit-margin-top="10"
     fit-margin-left="10"
     fit-margin-right="10"
     fit-margin-bottom="10"
     inkscape:zoom="1.0686231"
     inkscape:cx="234.01339"
     inkscape:cy="202.55554"
     inkscape:window-x="-8"
     inkscape:window-y="-8"
     inkscape:window-maximized="1"
     inkscape:current-layer="g18" /><g
     id="g18"
     inkscape:groupmode="layer"
     inkscape:label="BKH_Logo_Source"
     transform="matrix(1.3333333,0,0,-1.3333333,-160.07866,248.29733)"><g
       id="g22"><g
         id="g24"
         clip-path="url(#clipPath28)"><g
           id="g30"><g
             id="g32"><path
               d="m 325.856,178.723 v -11.588 c 4.953,-0.175 9.866,-0.809 14.73,-1.991 v 0 13.579 z m -36.866,0 v -17.166 c 4.961,1.476 9.901,2.726 14.814,3.673 v 0 13.493 z m -26.074,0 -21.631,-20.621 v 20.621 h -14.814 v -29.777 -8.034 -0.792 c 12.153,5.75 21.502,11.972 31.819,16.799 v 0 l -0.003,0.004 23.316,21.8 z m -97.795,0 v -50.558 c 15.822,-2.033 32.066,1.07 48.476,6.322 v 0 l 4.994,1.66 0.671,0.232 -0.002,-0.008 0.115,0.037 c 0.409,1.408 0.625,2.89 0.625,4.438 v 0 c 0,6.06 -3.284,10.521 -9.595,13.468 v 0 c 4.124,2.525 6.816,6.481 6.816,10.774 v 0 c 0,2.861 -1.178,5.638 -3.282,7.912 v 0 c -3.367,3.619 -8.838,5.723 -16.16,5.723 v 0 z m 14.814,-11.531 h 15.992 c 2.694,0 3.872,-0.673 4.798,-1.599 v 0 c 0.842,-0.842 1.347,-1.937 1.347,-3.283 v 0 c 0,-1.347 -0.505,-2.525 -1.347,-3.366 v 0 c -1.011,-1.011 -2.525,-1.516 -4.798,-1.516 v 0 h -15.992 z m 0,-20.37 h 17.928 c 2.441,0 3.956,-0.505 5.303,-1.851 v 0 c 1.009,-1.01 1.599,-2.441 1.599,-3.956 v 0 c 0,-1.6 -0.59,-3.03 -1.599,-4.04 v 0 c -1.094,-1.094 -2.862,-1.683 -5.303,-1.683 v 0 h -17.928 z m 145.921,13.316 v -1.279 h -13.633 c -7.711,-1.199 -15.465,-3.148 -23.233,-5.557 v 0 -29.542 h 14.814 v 23.146 h 22.052 V 123.76 h 14.73 v 35.539 c -4.055,0.597 -8.134,0.873 -12.232,0.873 v 0 c -0.832,0 -1.664,-0.012 -2.498,-0.034 m -74.593,-17.009 15.441,-19.369 h 18.265 l -20.974,26.068 c -4.351,-2.009 -8.527,-4.302 -12.732,-6.699 m -24.792,-13.223 v -6.146 h 14.814 v 13.655 c -4.646,-2.609 -9.504,-5.182 -14.814,-7.509"
               style="fill:url(#linearGradient40);stroke:none"
               id="path42" /></g></g></g></g><g
       id="g44"><g
         id="g46"
         clip-path="url(#clipPath50)"><g
           id="g52"
           transform="translate(335.6872,114.9551)"><path
             d="m 0,0 c 0.481,0 1.017,-0.074 1.424,-0.5 0.278,-0.296 0.444,-0.666 0.444,-1.091 0,-0.407 -0.185,-0.814 -0.481,-1.11 C 0.98,-3.09 0.463,-3.164 0,-3.164 H -4.145 V 0 Z m -4.145,-9.843 v 4.44 h 4.052 c 1.647,0 2.72,0.445 3.479,1.166 0.703,0.685 1.147,1.61 1.147,2.665 0,0.924 -0.352,1.775 -0.981,2.478 C 2.757,1.757 1.61,2.239 -0.093,2.239 H -6.791 V -9.843 Z m -9.27,12.082 v -7.734 c 0,-1.591 -1.22,-2.443 -2.867,-2.443 -1.555,0 -2.831,0.852 -2.831,2.443 v 7.734 h -2.664 v -7.734 c 0,-3.016 2.386,-4.718 5.495,-4.718 3.2,0 5.532,1.702 5.532,4.718 v 7.734 z m -22.221,-6.013 c 0,2.238 1.777,4.089 4.052,4.089 2.313,0 4.127,-1.851 4.127,-4.089 0,-2.276 -1.814,-4.164 -4.127,-4.164 -2.275,0 -4.052,1.888 -4.052,4.164 m -2.775,0 c 0,-3.59 2.997,-6.439 6.827,-6.439 3.831,0 6.902,2.849 6.902,6.439 0,3.515 -3.071,6.383 -6.902,6.383 -3.83,0 -6.827,-2.868 -6.827,-6.383 M -45.386,0 c 0.481,0 1.017,-0.055 1.443,-0.518 0.278,-0.278 0.426,-0.648 0.426,-1.054 0,-0.926 -0.759,-1.592 -1.684,-1.592 H -49.53 V 0 Z m -4.144,-9.843 v 4.44 h 3.589 l 2.442,-4.44 h 3.034 l -2.83,4.866 c 1.48,0.647 2.442,1.85 2.442,3.405 0,0.961 -0.37,1.831 -0.999,2.497 -0.777,0.814 -1.906,1.314 -3.626,1.314 h -6.698 V -9.843 Z m -6.476,10.287 c -1.739,1.406 -3.83,2.165 -5.736,2.165 -3.737,0 -6.661,-2.868 -6.661,-6.402 0,-3.552 2.887,-6.402 6.753,-6.402 1.887,0 4.089,0.722 5.662,1.887 v 5.422 h -6.124 V -5.07 h 3.645 v -2.035 c -0.759,-0.518 -1.98,-0.814 -3.072,-0.814 -2.701,0 -4.107,1.998 -4.107,4.108 0,2.257 1.61,4.126 3.922,4.126 1.258,0 2.905,-0.556 3.96,-1.517 z"
             style="fill:#493157;fill-opacity:1;fill-rule:evenodd;stroke:none"
             id="path54" /></g></g></g><g
       id="g56"><g
         id="g58"
         clip-path="url(#clipPath62)"><g
           id="g64"><g
             id="g66"><path
               d="m 288.99,156.702 v -4.64 c 32.174,9.973 64.129,12.117 93.687,-14.564 v 0 c -8.444,9.078 -18.067,15.315 -26.84,19.521 v 0 c -9.848,4.08 -19.88,5.774 -30.03,5.773 v 0 c -12.148,0 -24.464,-2.427 -36.817,-6.09"
               style="fill:url(#linearGradient72);stroke:none"
               id="path74" /></g></g></g></g><g
       id="g76"><g
         id="g78"
         clip-path="url(#clipPath82)"><g
           id="g84"><g
             id="g86"><path
               d="m 202.453,122.287 c 7.419,1.928 11.705,5.302 14.173,8.704 v 0 c -25.252,-8.658 -49.573,-11.982 -71.711,2.709 v 0 l -0.039,0.024 c -8.531,5.284 -17.317,15.117 -17.317,15.117 v 0 c 22.466,-29.314 47.969,-32.733 74.894,-26.554"
               style="fill:url(#linearGradient92);stroke:none"
               id="path94" /></g></g></g></g></g></svg>
